<mxfile host="app.diagrams.net" agent="Mozilla/5.0 (Windows NT 10.0; Win64; x64) AppleWebKit/537.36 (KHTML, like Gecko) Chrome/130.0.0.0 Safari/537.36" version="24.8.2">
  <diagram name="第 1 页" id="onV7RVTyQFb5j97IhT4-">
    <mxGraphModel dx="718" dy="283" grid="1" gridSize="10" guides="1" tooltips="1" connect="1" arrows="1" fold="1" page="1" pageScale="1" pageWidth="827" pageHeight="1169" math="0" shadow="0">
      <root>
        <mxCell id="0" />
        <mxCell id="1" parent="0" />
        <mxCell id="DT_HVZNL3CEQArVoj5VR-3" style="edgeStyle=orthogonalEdgeStyle;rounded=0;orthogonalLoop=1;jettySize=auto;html=1;" edge="1" parent="1" source="DT_HVZNL3CEQArVoj5VR-1" target="DT_HVZNL3CEQArVoj5VR-2">
          <mxGeometry relative="1" as="geometry" />
        </mxCell>
        <mxCell id="DT_HVZNL3CEQArVoj5VR-1" value="作为源：" style="text;html=1;align=center;verticalAlign=middle;resizable=0;points=[];autosize=1;strokeColor=none;fillColor=none;" vertex="1" parent="1">
          <mxGeometry x="495" y="48" width="70" height="30" as="geometry" />
        </mxCell>
        <mxCell id="DT_HVZNL3CEQArVoj5VR-2" value="1、Kafka" style="text;html=1;align=center;verticalAlign=middle;resizable=0;points=[];autosize=1;strokeColor=none;fillColor=none;" vertex="1" parent="1">
          <mxGeometry x="600" y="18" width="70" height="30" as="geometry" />
        </mxCell>
        <mxCell id="DT_HVZNL3CEQArVoj5VR-4" value="目前测试可以使用的分隔符有&lt;div&gt;&lt;div data-lark-html-role=&quot;root&quot;&gt;&lt;span style=&quot;white-space-collapse: preserve;&quot; data-eleid=&quot;3&quot; class=&quot;text-only&quot;&gt;, ; / &amp;amp;&lt;/span&gt;&lt;/div&gt;&lt;/div&gt;" style="text;html=1;align=center;verticalAlign=middle;resizable=0;points=[];autosize=1;strokeColor=none;fillColor=none;" vertex="1" parent="1">
          <mxGeometry x="720" y="13" width="180" height="40" as="geometry" />
        </mxCell>
        <mxCell id="DT_HVZNL3CEQArVoj5VR-5" style="edgeStyle=orthogonalEdgeStyle;rounded=0;orthogonalLoop=1;jettySize=auto;html=1;entryX=0.014;entryY=0.494;entryDx=0;entryDy=0;entryPerimeter=0;" edge="1" parent="1" source="DT_HVZNL3CEQArVoj5VR-2" target="DT_HVZNL3CEQArVoj5VR-4">
          <mxGeometry relative="1" as="geometry" />
        </mxCell>
      </root>
    </mxGraphModel>
  </diagram>
</mxfile>
